<?xml version="1.0" encoding="utf-8"?>
<!-- Generator: Adobe Illustrator 27.0.0, SVG Export Plug-In . SVG Version: 6.00 Build 0)  -->
<svg version="1.1"
	xmlns="http://www.w3.org/2000/svg"
	xmlns:xlink="http://www.w3.org/1999/xlink" x="0px" y="0px" viewBox="0 0 1024 1024" style="enable-background:new 0 0 1024 1024;" xml:space="preserve">
	<style type="text/css">
	.st0{display:none;fill:#222222;}
	.st1{fill:#FFC414;}
	.st2{display:none;}
	.st3{display:inline;}
	.st4{opacity:0.5;}
	.st5{fill:none;stroke:#FFFFFF;stroke-linecap:square;stroke-miterlimit:10;}
	.st6{fill:none;stroke:#FFFFFF;stroke-miterlimit:10;}
	.st7{display:inline;opacity:0.5;fill:none;stroke:#FFFFFF;stroke-linecap:square;stroke-miterlimit:10;}
	.st8{fill:#232323;}
	</style>
	<g id="Artwork_-_Edit_Me">
		<rect class="st0" width="1024" height="1024"/>
		<g>
			<path class="st1" d="M943.1,419.6C927.6,403.1,909,395,886.5,395c-86.1,0-172.2,0-258.4,0c-17.7,0-16.3,1.1-16.4-16.7
			c-0.1-27.5,0-55,0-82.5c0-22.3,0.3-44.6-0.1-66.9c-0.6-33.9-21.3-60.6-53.6-70.1c-11.1-3.3-22.6-2.3-33.8-1.8
			c-11.1,0.5-20.1-2.8-29-9.3c-32.1-23.5-64.7-46.4-97-69.6c-8.4-6-16.8-11.2-27.3-12c-2.3,0-4.7,0-7,0
			c-20.1,4.7-27.2,13.5-27.7,34.5c-0.1,3.8,0,7.5-0.1,11.3c0,11.9-0.2,23.8,0,35.6c0.1,6.8-2.5,9.6-9.3,9.1c-3.2-0.2-6.4,0-9.6,0
			c-61.1,0-122.3-0.2-183.4,0.1c-38.5,0.1-67.7,28.9-67.8,66.9C65.9,336,66,448.4,66,560.8c0,18,6.1,33.1,19.3,45.8
			c15.2,14.5,33.1,21,53.8,21c86.2,0,172.4,0,258.5,0c15.3,0,15.3,0,15.3,15.2c0,50.1-0.2,100.3,0.1,150.4
			c0.2,35.3,23.9,64.3,57.6,71.4c9.8,2.1,19.8,1.8,29.6,1.1c11.5-0.8,20.7,3,29.7,9.6c34.7,25.4,69.7,50.4,105,75
			c23.9,16.7,50,5,53.3-23.6c0.5-4.6,0.4-9.3,0.4-13.9c0.1-13,0-26.1,0-39.1c0-5.5,2.3-8,7.8-7.8c3.2,0.1,6.4,0,9.6,0
			c60.6,0,121.1,0,181.7,0c7.6,0,15.1-0.4,22.4-2.9c26.1-9.3,43.6-26,47.7-54.3c0-117.7,0-235.4,0-353.1
			C956.3,442.2,952.9,429.9,943.1,419.6z M138.5,568.8c-11.2,0-15.9-4.6-15.9-15.8c0-107.5,0-215,0-322.5c0-11.5,4.9-15.8,17.8-15.8
			c73.7,0,147.3,0,221,0c2.9,0,5.8,0.1,8.7-0.2c14.6-1.3,25.2-12.4,25.5-27c0.2-12.4,0-24.8,0-39.1c28.1,20,54.7,38.7,80.9,57.8
			c8.2,6,16.7,8.9,26.7,8.5c11-0.4,22.1-0.2,33.2-0.1c11.8,0.2,16.2,4.7,16.2,16.5c0,106.9,0,213.9,0,320.8
			c0,12.3-4.4,16.8-16.7,16.8C403.5,568.8,271,568.8,138.5,568.8z M902.2,789.2c0,14.5-3.9,18.5-18.6,18.5
			c-73.6,0-147.3,0.4-220.9-0.2c-21.1-0.2-35.4,12.5-33.6,33.4c0.9,10.3,0.2,20.8,0.2,33.2c-24.3-17.3-47.9-32.8-69.8-50.2
			c-15.8-12.5-32.3-18.4-52.2-16.3c-6.9,0.7-14,0.4-20.9,0.1c-9.1-0.4-13.9-5.3-13.9-14.3c-0.1-54.5,0-108.9-0.1-163.4
			c0-4.6,1.3-5.8,5.9-5.7c20.1,0.2,40.2,0.1,60.2,0.1c39.8-0.1,70-30.1,70.2-69.8c0.2-31,0.3-62-0.1-93c-0.1-6.7,1.8-7.9,8.2-7.9
			c89.1,0.2,178.1,0.1,267.2,0.1c14.8,0,18.5,3.7,18.5,18.4C902.2,577.8,902.2,683.5,902.2,789.2z"/>
			<path class="st1" d="M279.5,859.4c-16-0.1-32,0.2-48-0.1c-14.1-0.3-24.4-11.1-24.8-25.1c-0.1-4.1,0-8.1,0-12.2c0-24.5,0-49,0-75.8
			c8.2,8.3,14.7,15.2,21.5,21.8c11.8,11.4,28.8,11.6,39.9,0.6c11.1-11.1,11.1-28-0.5-39.6c-22.5-22.7-45.1-45.2-67.9-67.6
			c-12.9-12.7-28.8-12.7-41.7,0.1c-22.5,22.2-45,44.6-67.3,67c-12.2,12.3-12.5,28.7-1,40.2c11.2,11.2,28.2,10.8,40.5-1.2
			c6.5-6.4,12.9-12.9,20.8-20.9c0,5,0,7.8,0,10.6c0,26.1-0.2,52.1,0.1,78.2c0.4,37.7,27.7,70.5,64.9,77.7c21,4.1,42.4,1.3,63.6,1.7
			c18.8,0.3,30.8-11,30.7-27.9C309.9,870.7,297.5,859.5,279.5,859.4z"/>
			<path class="st1" d="M362.6,860.1c-15.9,0-27.8,11.5-28,26.9c-0.2,15.5,12.4,27.9,28.2,27.9c15.1,0,27.5-12.6,27.4-27.6
			C390.1,871.7,378.4,860.1,362.6,860.1z"/>
			<path class="st1" d="M737,154.6c14.5,0.1,29.1,0,43.6,0.1c20,0,30.1,9.9,30.1,29.7c0.1,24.6,0.1,49.2-0.1,73.9
			c0,2.4,1.2,5.2-2.4,8.3c-6.3-6.8-12.4-13.7-19-20.2c-11.8-11.5-28.8-11.8-39.8-1c-11.2,11-11.5,27.9,0.1,39.6
			c22.8,23.1,45.9,46,69.1,68.8c11.3,11.1,27.9,11.3,39.2,0.3c23.5-22.9,46.7-46.1,69.8-69.4c11.1-11.2,10.8-28.4,0.1-39.1
			c-11.1-11-28.1-10.9-39.8,0.4c-6.6,6.4-12.9,13.2-19.4,19.9c-0.7-0.2-1.5-0.5-2.2-0.7c0-3.1,0-6.2,0-9.2c0-25.2,0.3-50.4-0.1-75.6
			c-0.7-46.1-36.2-80.9-82.4-81.3c-15.7-0.1-31.4-0.1-47.1,0c-17,0.1-29.8,11.8-29.9,27.4C706.7,142.6,719.3,154.4,737,154.6z"/>
			<path class="st1" d="M652,154.6c15.1-0.1,27.7-12.7,27.8-27.6c0.1-15-12.4-27.4-27.7-27.6c-15.9-0.1-28.1,12.1-28,27.9
			C624.3,142.4,636.9,154.7,652,154.6z"/>
			<path class="st1" d="M447.9,318c-13.7-0.2-27.4,0-41,0c-13.7,0-27.4-0.5-41,0.2c-7.3,0.3-8.8-2.3-8.4-8.8
			c0.5-9.5,0.3-19.1,0.1-28.7c-0.3-13.5-8.3-21.9-20.5-22c-12.3-0.1-20.6,8.3-21,21.6c-0.3,9.6-0.6,19.1,0,28.7
			c0.5,7.1-1.3,9.4-8.9,9.2c-26.5-0.5-53-0.3-79.4-0.1c-13,0.1-22.2,8.8-22.3,20.5c-0.1,11.6,9.3,20.6,22.1,21
			c7.3,0.2,14.6,0.4,21.8-0.1c5.4-0.3,8,1.2,10.1,6.5c10,25.4,23.4,49,40.9,70.2c3.3,4,2.8,5.7-1.3,8.5
			c-17.1,11.6-35.7,19-55.9,23.1c-12.7,2.5-19.5,12.7-17.2,24.9c2.1,11,13,17.8,25.2,15.7c27-4.7,52-14.8,73.7-31.4
			c7.6-5.8,12-4.8,19,0.4c21.5,15.9,45.7,26.2,72.2,30.8c13.5,2.3,24.5-4.3,26.5-15.9c2.2-12.2-5.1-21.9-18.6-24.6
			c-19.9-4-38.2-11.7-54.9-23.2c-3.7-2.6-4.1-4.3-1.1-7.9c17.7-21.7,31.5-45.7,41.6-71.8c1.4-3.7,3.3-5.4,7.5-5.2
			c10.5,0.3,21,0.4,31.4,0c12.9-0.5,22-9.8,21.5-21.5C469.4,326.4,460.5,318.2,447.9,318z M337.7,407.5c-2.1,2.7-3.6,4.3-6.5,0.6
			c-11.2-14.8-21-30.3-28.8-48c21.3,0,41.8,0,63.5,0C358.3,377.6,348.7,393,337.7,407.5z"/>
			<path class="st1" d="M710.3,525.8c-3.9-11.2-10.1-16.1-19.9-16.4c-10.3-0.3-16.7,4.5-21,16c-23.5,62.7-47,125.5-70.5,188.3
			c-4.8,12.8-0.2,24.4,11.2,28.8c11.7,4.5,23-1.3,28.1-14.6c4.6-12.1,9.6-24.2,13.5-36.6c1.8-5.7,4.7-6.9,10-6.7
			c8.7,0.4,17.5,0.1,26.2,0.1c8.7,0,17.5,0.4,26.2-0.1c5.6-0.3,8.2,1.4,9.8,6.8c3.7,12.1,8,24.1,12.3,36.1
			c4.8,13.3,15.2,19.1,26.9,15.3c12.1-4,17.3-15.6,12.7-28.8C754,651.3,732.2,588.6,710.3,525.8z M670.1,642.8
			c6.1-16.5,12.1-32.6,19-51.2c6.4,18.7,12,34.6,17.7,51.2C694.4,642.8,683,642.8,670.1,642.8z"/>
		</g>
	</g>
	<g id="Grid" class="st2">
		<g class="st3">
			<g class="st4">
				<g>
					<line class="st5" x1="1024" y1="0" x2="0" y2="1024"/>
					<line class="st5" x1="0" y1="0" x2="1024" y2="1024"/>
					<line class="st5" x1="958" y1="0" x2="958" y2="1024"/>
					<line class="st5" x1="706" y1="0" x2="706" y2="1024"/>
					<line class="st5" x1="512" y1="0" x2="512" y2="1024"/>
					<line class="st5" x1="318" y1="0" x2="318" y2="1024"/>
					<line class="st5" x1="66" y1="0" x2="66" y2="1024"/>
					<line class="st5" x1="0" y1="66" x2="1024" y2="66"/>
					<line class="st5" x1="0" y1="318" x2="1024" y2="318"/>
					<line class="st5" x1="0" y1="512" x2="1024" y2="512"/>
					<line class="st5" x1="0" y1="706" x2="1024" y2="706"/>
					<line class="st5" x1="0" y1="958" x2="1024" y2="958"/>
					<circle class="st6" cx="512" cy="512" r="194"/>
					<circle class="st6" cx="512" cy="512" r="274"/>
					<circle class="st6" cx="512" cy="512" r="446"/>
				</g>
			</g>
		</g>
		<path class="st7" d="M799,1024H225C100.7,1024,0,923.3,0,799V225C0,100.7,100.7,0,225,0h574c124.3,0,225,100.7,225,225v574
		C1024,923.3,923.3,1024,799,1024z"/>
	</g>
	<g id="Guides" class="st2">
	</g>
	<g id="Mask" class="st2">
		<g class="st3">
			<path class="st8" d="M0,799v225h225C100.7,1024,0,923.3,0,799z"/>
			<path class="st8" d="M225,0H0v225C0,100.7,100.7,0,225,0z"/>
			<path class="st8" d="M799,0c124.3,0,225,100.7,225,225V0H799z"/>
			<path class="st8" d="M799,1024h225V799C1024,923.3,923.3,1024,799,1024z"/>
		</g>
	</g>
</svg>
